<svg id="Layer_1" data-name="Layer 1" xmlns="http://www.w3.org/2000/svg" viewBox="0 0 116.37 77.23"><defs><style>.cls-1{fill:#ffcf01;}</style></defs><path class="cls-1" d="M448.16,341.74a3.34,3.34,0,1,0,3.34-3.24A3.23,3.23,0,0,0,448.16,341.74Zm.89,0a2.45,2.45,0,1,1,4.9,0,2.45,2.45,0,1,1-4.9,0Zm1.15,1.82h.73V342h.45l.88,1.56H453l-1-1.59a.91.91,0,0,0,.95-1c0-.79-.51-1.07-1.42-1.07H450.2Zm.73-3.08h.61c.33,0,.74.06.74.45s-.3.51-.71.51h-.64Zm-58.46-9L370.35,301.3v22h8.79V345H338.46V323.29h8.25V289.48h-8.25V267.77h32l22.05,30.45,22-30.45h31.95v21.71h-8.24v33.81h8.24V345H405.79V323.29h8.79v-22Z" transform="translate(-338.46 -267.77)"/></svg>